<?xml version="1.0" encoding="utf-8"?>
<!-- Generator: Adobe Illustrator 26.0.3, SVG Export Plug-In . SVG Version: 6.00 Build 0)  -->
<svg version="1.1" id="レイヤー_1" xmlns="http://www.w3.org/2000/svg" xmlns:xlink="http://www.w3.org/1999/xlink" x="0px"
	 y="0px" viewBox="0 0 841.89 595.28" style="enable-background:new 0 0 841.89 595.28;" xml:space="preserve">
<style type="text/css">
	.st0{fill:#C2C2C1;}
	.st1{fill:#EAEAEA;}
	.st2{fill:#D3D4D5;}
	.st3{fill:#CE1A22;}
	.st4{font-family:'KozGoPro-Bold';}
	.st5{font-size:45.7388px;}
	.st6{letter-spacing:-1;}
	.st7{fill:#E60012;}
	.st8{fill:#FFFFFF;}
	.st9{font-family:'KozGoPro-Regular-83pv-RKSJ-H';}
	.st10{font-size:50.9068px;}
</style>
<path class="st0" d="M503.42,112.36H312.35c-7.57,0-13.7,6.14-13.7,13.7v313.84c0,7.57,6.14,13.7,13.7,13.7H541.9
	c7.57,0,13.71-6.13,13.71-13.7V164.55L503.42,112.36z"/>
<path class="st1" d="M501.66,110H310.59c-7.57,0-13.7,6.14-13.7,13.7v313.83c0,7.57,6.14,13.71,13.7,13.71h229.55
	c7.57,0,13.71-6.14,13.71-13.71V162.18L501.66,110z"/>
<path class="st2" d="M501.66,148.48c0,7.57,6.13,13.7,13.7,13.7h38.48L501.66,110V148.48z"/>
<rect x="265" y="142.39" class="st3" width="175.68" height="68.93"/>
<text transform="matrix(1 0 0 1 397.3528 431.8286)"><tspan x="0" y="0" class="st4 st5">Ad</tspan><tspan x="57.63" y="0" class="st4 st5 st6">o</tspan><tspan x="82.74" y="0" class="st4 st5">be</tspan></text>
<path class="st7" d="M465.01,344.31c0,0,61.34-12.8,61.78,11.91c0.44,24.71-48.54,7.5-65.31-3.53c0,0-45.89,5.3-77.66,16.77
	c0,0-25.15,53.39-47.66,50.3c-22.5-3.09,3.09-36.18,36.63-48.54c0,0,29.87-49.54,38.7-76.46c0,0-21.22-67.82,1.02-70.04
	c26.48-2.65,8.83,65.18,8.83,65.18S438.53,334.16,465.01,344.31z M452.32,346.51c0,0-22.83-13.57-36.4-42.03
	c0,0-15.89,37.4-29.45,60.23C386.46,364.71,417.9,349.16,452.32,346.51z M333.07,415.35c9.71,5.29,38.83-40.6,38.83-40.6
	C365.72,374.75,323.36,410.05,333.07,415.35z M475.6,350.04c0,0,45.89,20.74,49.42,7.94C528.55,345.19,475.6,350.04,475.6,350.04z
	 M417.35,279.88c0,0,9.27-30.45,6.62-41.92c-2.65-11.47-10.51-12.34-11.03-3.53C412.05,249.44,417.35,279.88,417.35,279.88z"/>
<text transform="matrix(1 0 0 1 302.8286 197.4792)" class="st8 st9 st10">PDF</text>
</svg>
